# xmcd
#
# Track frame offsets: 
#        150
#        24542
#        41567
#        61253
#        78794
#        99817
#        121489
#        138963
#        160945
#        180342
#        199003
#        220284
#
# Disc length: 3282 seconds
#
# Revision: 0
# Processed by: cddbd v1.5.2PL0 Copyright (c) Steve Scherf et al.
# Submitted via: ExactAudioCopy v1.0b3
#
DISCID=940cd00c
DTITLE=Sin Bandera - Una Última Vez Encore
DYEAR=2017
DGENRE=Pop
TTITLE0=En Ésta No
TTITLE1=Te Vi Venir
TTITLE2=Kilómetros
TTITLE3=¿Qué Pasaría?
TTITLE4=Amor Real
TTITLE5=Que Lloro
TTITLE6=Adiós
TTITLE7=Sirena
TTITLE8=Suelta Mi Mano
TTITLE9=Que Me Alcance La Vida
TTITLE10=Mientes Tan Bien
TTITLE11=Entra En Mi Vida
EXTD=
EXTT0=
EXTT1=
EXTT2=
EXTT3=
EXTT4=
EXTT5=
EXTT6=
EXTT7=
EXTT8=
EXTT9=
EXTT10=
EXTT11=
PLAYORDER=
